<svg width="38" height="38" viewBox="0 0 38 38" fill="none" xmlns="http://www.w3.org/2000/svg">
<path fill-rule="evenodd" clip-rule="evenodd" d="M26.8367 8.92357L29.0758 11.1627L15.6408 24.5978L17.88 26.8369L15.6408 29.0761L13.4016 26.8369L11.1625 29.0761L8.92329 26.8369L26.8367 8.92357ZM22.3583 26.8369L20.1191 29.0761L17.88 26.8369L20.1191 24.5978L22.3583 26.8369ZM22.3583 26.8369L24.5975 24.5978L26.8367 26.8369L24.5975 29.0761L22.3583 26.8369ZM11.1625 20.1194L13.4016 22.3586L11.1625 24.5978L8.92328 22.3586L11.1625 20.1194ZM13.4016 17.8803L11.1625 15.6411L13.4016 13.4019L11.1625 11.1627L8.92328 13.4019L11.1625 15.6411L8.92328 17.8803L11.1625 20.1194L13.4016 17.8803Z" fill="#F06814"/>
</svg>
