<svg width="38" height="38" viewBox="0 0 38 38" fill="none" xmlns="http://www.w3.org/2000/svg">
<path fill-rule="evenodd" clip-rule="evenodd" d="M8.92455 11.1633L11.1637 8.92417L24.5987 22.3592L26.8379 20.12L29.0771 22.3592L26.8379 24.5984L29.0771 26.8375L26.8379 29.0767L8.92455 11.1633ZM26.8379 15.6417L29.0771 17.8809L26.8379 20.12L24.5987 17.8809L26.8379 15.6417ZM26.8379 15.6417L24.5987 13.4025L26.8379 11.1633L29.0771 13.4025L26.8379 15.6417ZM20.1204 26.8375L22.3596 24.5984L24.5987 26.8375L22.3596 29.0767L20.1204 26.8375ZM17.8812 24.5984L15.6421 26.8375L13.4029 24.5984L11.1637 26.8375L13.4029 29.0767L15.6421 26.8375L17.8812 29.0767L20.1204 26.8375L17.8812 24.5984Z" fill="#F06814"/>
</svg>
