<svg width="22" height="22" viewBox="0 0 22 22" fill="none" xmlns="http://www.w3.org/2000/svg">
<path fill-rule="evenodd" clip-rule="evenodd" d="M0.393335 2.7504L2.75036 0.39338L16.8925 14.5355L19.2495 12.1785L21.6065 14.5355L19.2495 16.8925L21.6065 19.2496L19.2495 21.6066L0.393335 2.7504ZM19.2495 12.1785L16.8925 9.82147L19.2495 7.46445L21.6065 9.82147L19.2495 12.1785ZM16.8925 5.10742L19.2495 2.7504L21.6065 5.10742L19.2495 7.46445L16.8925 5.10742ZM12.1785 19.2496L14.5355 16.8925L16.8925 19.2496L14.5355 21.6066L12.1785 19.2496ZM9.82142 16.8925L7.4644 19.2496L5.10738 16.8925L2.75035 19.2496L5.10738 21.6066L7.4644 19.2496L9.82142 21.6066L12.1784 19.2496L9.82142 16.8925Z" fill="#713EDD"/>
</svg>
