<svg width="35" height="35" viewBox="0 0 35 35" fill="none" xmlns="http://www.w3.org/2000/svg">
<path fill-rule="evenodd" clip-rule="evenodd" d="M18.958 2.91699H16.0414V11.667H18.958V2.91699ZM18.958 23.3336H16.0414V32.0836H18.958V23.3336ZM32.0829 16.0419V18.9586H23.3329V16.0419H32.0829ZM11.666 18.9586V16.0419H2.91602L2.91602 18.9586H11.666ZM21.8744 10.2086H24.791V13.1253H21.8744V10.2086ZM27.7075 7.29195H24.7909V10.2086H27.7075V7.29195ZM13.1243 10.2086H10.2077V13.1253H13.1243V10.2086ZM7.29115 7.29195H10.2078V10.2086H7.29115V7.29195ZM21.8744 24.792H24.7909V27.7086H27.7075V24.7919H24.791V21.8753H21.8744V24.792ZM10.2077 24.7919V21.8753H13.1243V24.792H10.2078V27.7086H7.29115V24.7919H10.2077Z" fill="#EAE0FF"/>
</svg>
