<svg width="48" height="48" viewBox="0 0 48 48" fill="none" xmlns="http://www.w3.org/2000/svg">
<rect width="48" height="48" rx="4" fill="white"/>
<path fill-rule="evenodd" clip-rule="evenodd" d="M19.9997 17.3333H25.333V18.6667H19.9997V17.3333ZM18.6663 20V18.6667H19.9997V20H18.6663ZM18.6663 25.3333H17.333V20H18.6663V25.3333ZM19.9997 26.6667H18.6663V25.3333H19.9997V26.6667ZM25.333 26.6667V28H19.9997V26.6667H25.333ZM26.6663 25.3333H25.333V26.6667H26.6663V28H27.9997V29.3333H29.333V30.6667H30.6663V29.3333H29.333V28H27.9997V26.6667H26.6663V25.3333ZM26.6663 20H27.9997V25.3333H26.6663V20ZM26.6663 20V18.6667H25.333V20H26.6663Z" fill="#8A9193"/>
</svg>
