<svg width="24" height="24" viewBox="0 0 24 24" fill="none" xmlns="http://www.w3.org/2000/svg">
<path fill-rule="evenodd" clip-rule="evenodd" d="M19.7779 6.22232V4H4.22232V6.22232H2V10.6668H4.22232V8.44464H6.44446V6.2225H8.66678V8.44464H10.8889V6.2225H13.1111V8.44452H10.889V10.6667H13.1112V8.44464H15.3334V6.2225H17.5555V8.44452H15.3335V10.6667H17.5556V8.44464H19.7779V10.6668H22V6.22232H19.7779ZM4.22229 10.6668H6.44442V12.889H4.22229V10.6668ZM6.44458 12.889H8.66671V15.1112H6.44458V12.889ZM10.8889 15.1113H8.66675V17.3334H10.8889V15.1113ZM10.889 17.3335H13.1112V19.5556H10.889V17.3335ZM15.3334 15.1113H13.1112V17.3334H15.3334V15.1113ZM15.3335 12.889H17.5556V15.1112H15.3335V12.889ZM19.7779 10.6668H17.5558V12.889H19.7779V10.6668ZM8.66671 8.44452H6.44458V10.6667H8.66671V8.44452Z" fill="#8A9393"/>
</svg>
